<svg id="svg" version="1.1" xmlns="http://www.w3.org/2000/svg" xmlns:xlink="http://www.w3.org/1999/xlink" width="400" height="430.7692307692308" viewBox="0, 0, 400,430.7692307692308"><g id="svgg"><path id="path0" d="M100.900 95.465 C 99.631 95.977,101.540 98.985,108.771 107.864 C 111.356 111.039,112.224 112.151,112.545 112.700 C 112.735 113.025,113.185 113.604,113.545 113.988 C 113.905 114.372,114.793 115.476,115.518 116.443 C 116.243 117.409,118.673 120.565,120.918 123.456 C 123.163 126.347,125.307 129.137,125.683 129.656 C 127.042 131.534,127.815 132.511,128.600 133.339 C 129.288 134.066,131.273 136.570,133.402 139.400 C 133.733 139.840,134.903 141.354,136.002 142.766 C 138.310 145.729,138.404 146.296,136.885 148.086 C 136.272 148.809,135.071 150.480,134.217 151.800 C 133.362 153.120,132.334 154.688,131.931 155.284 C 131.529 155.880,131.200 156.546,131.200 156.764 C 131.200 156.982,130.954 157.304,130.652 157.480 C 130.351 157.656,129.979 158.205,129.825 158.700 C 129.371 160.165,130.462 159.768,131.777 157.991 C 133.533 155.617,135.719 156.733,138.214 161.279 C 139.733 164.045,140.741 171.953,139.622 172.326 C 138.871 172.576,139.175 173.600,140.000 173.600 C 141.036 173.600,141.029 174.594,139.987 175.324 C 139.540 175.637,139.097 176.296,139.002 176.790 C 138.907 177.283,138.382 178.272,137.836 178.988 C 137.290 179.705,136.724 180.765,136.578 181.345 C 136.432 181.925,136.170 182.400,135.996 182.400 C 135.821 182.400,135.487 182.895,135.254 183.500 C 135.021 184.105,134.260 185.353,133.562 186.274 C 132.659 187.467,132.384 188.157,132.606 188.674 C 132.879 189.311,132.968 189.266,133.336 188.300 C 133.566 187.695,133.990 187.200,134.277 187.200 C 134.565 187.200,134.800 186.852,134.800 186.427 C 134.800 186.002,135.160 185.540,135.600 185.400 C 136.040 185.260,136.400 184.918,136.400 184.639 C 136.400 184.360,137.165 183.318,138.100 182.322 C 139.035 181.327,140.430 179.765,141.200 178.851 C 142.508 177.298,144.139 175.399,145.366 174.000 C 145.656 173.670,147.885 170.763,150.320 167.541 C 154.552 161.941,159.379 155.693,160.482 154.387 C 160.767 154.050,161.530 153.060,162.179 152.187 C 162.827 151.314,163.457 150.510,163.579 150.400 C 166.203 148.027,166.846 145.791,165.400 144.073 C 164.850 143.419,164.400 142.784,164.400 142.660 C 164.400 142.537,163.995 141.990,163.500 141.445 C 163.005 140.899,162.011 139.676,161.292 138.727 C 160.572 137.777,158.579 135.197,156.863 132.994 C 155.147 130.790,152.329 127.100,150.602 124.794 C 148.874 122.487,147.215 120.330,146.916 120.000 C 146.616 119.670,144.852 117.420,142.995 115.000 C 141.138 112.580,139.381 110.330,139.090 110.000 C 138.799 109.670,138.274 108.950,137.923 108.400 C 137.571 107.850,136.950 107.040,136.542 106.600 C 136.134 106.159,135.271 105.079,134.625 104.200 C 131.701 100.221,127.905 95.649,127.347 95.435 C 126.606 95.151,101.609 95.179,100.900 95.465 M96.000 147.200 C 96.000 147.709,97.612 147.709,98.400 147.200 C 98.846 146.912,98.616 146.811,97.500 146.806 C 96.675 146.803,96.000 146.980,96.000 147.200 M94.400 148.633 C 94.400 149.340,95.261 149.217,95.508 148.475 C 95.595 148.214,95.382 148.000,95.033 148.000 C 94.685 148.000,94.400 148.285,94.400 148.633 M92.612 150.363 C 92.479 150.783,92.106 151.227,91.785 151.350 C 91.463 151.474,91.200 151.851,91.200 152.187 C 91.200 152.524,90.930 152.800,90.600 152.800 C 90.270 152.800,90.000 153.055,90.000 153.367 C 90.000 153.679,89.891 154.219,89.757 154.567 C 89.624 154.915,89.710 155.200,89.950 155.200 C 90.189 155.200,90.489 154.795,90.617 154.300 C 90.745 153.805,91.423 153.115,92.125 152.766 C 93.094 152.285,93.430 151.829,93.525 150.866 C 93.662 149.490,93.004 149.128,92.612 150.363 M88.116 156.400 C 88.001 156.840,87.679 157.200,87.400 157.200 C 87.121 157.200,86.799 157.560,86.684 158.000 C 86.569 158.440,86.188 158.800,85.837 158.800 C 85.487 158.800,85.200 159.076,85.200 159.413 C 85.200 159.749,84.923 160.131,84.585 160.261 C 84.247 160.391,83.720 160.970,83.414 161.548 C 83.108 162.127,82.304 163.196,81.629 163.925 C 80.953 164.653,80.400 165.353,80.400 165.479 C 80.400 165.605,79.995 166.096,79.500 166.569 C 77.977 168.025,72.630 174.749,70.728 177.600 C 70.361 178.150,69.642 179.080,69.130 179.666 C 67.773 181.223,67.199 181.948,65.222 184.608 C 64.244 185.924,62.354 188.365,61.022 190.033 C 59.690 191.701,58.330 193.482,58.000 193.990 C 57.670 194.498,56.995 195.365,56.500 195.915 C 56.005 196.466,55.600 197.215,55.600 197.579 C 55.600 198.152,59.977 204.334,61.545 205.976 C 62.256 206.721,69.992 216.932,70.869 218.283 C 71.237 218.851,71.700 219.424,71.896 219.557 C 72.242 219.792,74.335 222.418,76.400 225.207 C 76.950 225.951,78.760 228.278,80.423 230.379 C 82.086 232.481,84.501 235.640,85.790 237.400 C 87.079 239.160,88.377 240.870,88.676 241.200 C 88.974 241.530,90.292 243.187,91.604 244.883 C 94.833 249.056,93.772 248.801,107.874 248.794 C 124.317 248.786,124.019 249.137,115.955 239.278 C 115.430 238.637,114.730 237.701,114.400 237.199 C 114.070 236.697,113.373 235.817,112.851 235.243 C 112.329 234.669,110.908 232.850,109.693 231.200 C 108.478 229.550,107.150 227.878,106.742 227.484 C 106.334 227.091,106.000 226.631,106.000 226.462 C 106.000 226.293,104.656 224.725,103.014 222.977 C 101.372 221.230,100.022 219.513,100.014 219.162 C 100.006 218.811,99.634 218.193,99.187 217.788 C 98.740 217.384,97.992 216.411,97.526 215.626 C 97.059 214.842,96.480 214.020,96.239 213.800 C 95.997 213.580,95.061 212.410,94.157 211.200 C 93.254 209.990,92.052 208.460,91.487 207.800 C 89.336 205.288,84.538 198.936,84.276 198.254 C 83.914 197.309,84.573 196.067,86.600 193.879 C 87.437 192.975,88.026 192.074,88.876 190.400 C 89.155 189.850,89.612 189.256,89.892 189.080 C 90.171 188.904,90.400 188.409,90.400 187.980 C 90.400 187.551,90.567 187.200,90.772 187.200 C 90.976 187.200,91.707 186.365,92.396 185.344 C 94.010 182.952,93.423 182.214,91.551 184.282 C 88.295 187.878,86.712 187.716,84.957 183.605 C 84.630 182.838,83.987 181.812,83.528 181.324 C 82.889 180.643,82.705 179.956,82.741 178.376 C 82.767 177.242,82.497 175.159,82.142 173.746 C 81.547 171.376,81.547 171.121,82.148 170.457 C 82.507 170.061,82.800 169.451,82.800 169.101 C 82.800 168.032,83.256 167.200,83.843 167.200 C 84.489 167.200,84.498 167.102,84.033 165.100 C 83.665 163.515,83.960 163.188,84.821 164.225 C 85.565 165.122,86.213 163.945,85.603 162.805 C 85.319 162.274,85.311 162.000,85.579 162.000 C 85.803 162.000,86.455 161.076,87.027 159.947 C 87.599 158.819,88.412 157.525,88.833 157.072 C 89.767 156.070,89.808 155.600,88.963 155.600 C 88.612 155.600,88.231 155.960,88.116 156.400 M128.200 160.400 C 127.874 160.928,128.352 161.677,128.828 161.383 C 129.313 161.083,129.310 160.000,128.824 160.000 C 128.617 160.000,128.336 160.180,128.200 160.400 M131.041 189.836 C 130.708 190.704,131.200 191.444,131.644 190.743 C 132.094 190.032,132.094 189.200,131.643 189.200 C 131.446 189.200,131.176 189.486,131.041 189.836 M128.623 192.089 C 127.921 193.091,127.795 194.400,128.400 194.400 C 128.620 194.400,128.800 194.130,128.800 193.800 C 128.800 193.470,129.041 193.200,129.336 193.200 C 129.630 193.200,130.077 192.750,130.327 192.200 C 130.937 190.861,129.546 190.770,128.623 192.089 M126.217 195.572 C 125.921 196.051,126.674 196.525,127.207 196.196 C 127.654 195.919,127.360 195.200,126.800 195.200 C 126.606 195.200,126.344 195.368,126.217 195.572 M212.286 210.705 C 211.229 211.873,211.241 234.249,212.299 235.023 C 213.513 235.910,214.000 234.982,214.000 231.782 C 214.000 224.306,217.450 224.959,221.995 233.294 C 222.807 234.782,224.207 235.513,225.382 235.062 C 225.944 234.847,223.400 230.425,220.806 227.108 C 219.020 224.823,219.228 223.465,221.748 220.965 C 222.986 219.736,224.000 218.392,224.000 217.978 C 224.000 216.756,222.731 217.510,219.513 220.647 C 214.173 225.852,214.015 225.758,214.006 217.376 C 213.999 210.724,213.616 209.236,212.286 210.705 M136.480 210.880 C 136.129 211.231,136.000 214.484,136.000 223.016 L 136.000 234.672 137.019 235.136 C 139.368 236.206,149.399 235.421,151.957 233.966 C 155.931 231.707,156.333 224.488,152.566 223.042 C 151.811 222.753,151.809 220.048,152.563 219.759 C 155.176 218.756,153.931 212.619,150.785 210.992 C 149.297 210.223,137.232 210.128,136.480 210.880 M149.405 212.967 C 151.981 214.654,152.024 218.273,149.490 220.080 C 147.576 221.445,140.491 221.691,139.235 220.435 C 137.792 218.992,138.176 213.055,139.757 212.364 C 141.111 211.771,148.264 212.219,149.405 212.967 M252.080 212.480 C 251.816 212.744,251.600 213.530,251.600 214.226 C 251.600 214.923,251.206 215.993,250.725 216.605 L 249.850 217.717 250.725 219.238 C 251.508 220.599,251.600 221.332,251.600 226.233 C 251.600 232.805,252.022 234.590,253.717 235.181 C 256.569 236.175,257.389 235.251,255.345 233.346 L 254.000 232.092 254.000 226.073 L 254.000 220.054 255.200 219.200 C 256.627 218.184,256.738 217.359,255.500 216.973 C 254.334 216.609,254.014 216.086,254.006 214.533 C 253.995 212.199,253.204 211.356,252.080 212.480 M176.926 217.217 C 175.486 217.660,173.200 219.763,173.200 220.643 C 173.200 221.607,174.459 221.812,175.162 220.963 C 177.382 218.283,180.019 217.684,182.436 219.312 C 185.320 221.256,184.689 224.290,181.279 224.872 C 180.376 225.026,179.281 225.343,178.845 225.576 C 178.409 225.809,177.648 226.000,177.153 226.000 C 172.698 226.000,170.310 230.863,173.149 234.155 C 174.633 235.875,175.816 236.003,180.700 234.974 C 182.383 234.620,181.658 233.924,179.700 234.015 C 177.059 234.138,177.010 234.125,175.631 232.964 C 173.346 231.042,174.886 227.200,177.941 227.200 C 178.602 227.200,179.413 226.930,179.743 226.600 C 182.974 223.369,185.981 228.859,182.938 232.431 C 182.200 233.298,182.263 233.600,183.182 233.600 C 183.612 233.600,184.622 234.046,185.425 234.591 C 186.559 235.361,187.055 235.492,187.643 235.177 C 188.428 234.757,188.677 234.000,188.031 234.000 C 187.256 234.000,186.720 230.972,186.733 226.671 C 186.752 220.706,186.253 218.903,184.303 217.897 C 182.565 217.001,178.766 216.650,176.926 217.217 M196.894 217.808 C 193.811 219.374,192.691 221.459,192.472 226.047 C 192.137 233.058,195.782 236.518,202.337 235.411 C 204.503 235.045,206.800 232.854,206.800 231.154 C 206.800 230.162,205.531 229.820,205.055 230.684 C 202.261 235.757,196.371 235.116,195.202 229.611 C 193.369 220.973,200.432 214.589,204.600 221.116 C 206.113 223.485,207.928 222.563,206.639 220.080 C 205.028 216.978,200.575 215.939,196.894 217.808 M236.400 217.208 C 227.434 218.804,226.807 233.380,235.617 235.435 C 240.167 236.496,246.315 233.308,244.330 230.916 C 243.983 230.498,243.510 230.749,242.028 232.135 C 238.017 235.887,232.400 234.148,232.400 229.155 C 232.400 227.304,233.137 226.800,235.840 226.800 C 236.881 226.800,237.616 226.683,237.472 226.539 C 237.329 226.395,236.646 226.294,235.955 226.314 C 232.731 226.405,231.186 222.886,233.500 220.721 C 236.014 218.368,237.618 218.005,240.002 219.248 C 243.947 221.304,243.595 225.362,239.387 226.348 C 237.964 226.681,238.137 226.724,241.067 226.760 C 245.163 226.810,245.602 226.645,245.594 225.057 C 245.571 219.966,241.315 216.333,236.400 217.208 M263.699 217.703 C 257.956 220.775,261.716 227.600,269.151 227.600 C 269.572 227.600,270.476 228.236,271.159 229.014 C 275.103 233.507,267.055 236.589,262.920 232.168 C 261.433 230.578,260.399 230.386,260.402 231.700 C 260.410 235.702,269.231 237.413,272.843 234.113 C 276.618 230.663,274.828 227.307,268.109 225.241 C 263.807 223.918,263.196 223.429,263.205 221.326 C 263.211 219.944,265.344 218.400,267.247 218.400 C 268.520 218.400,271.200 219.768,271.200 220.419 C 271.200 221.238,272.874 221.697,273.518 221.053 C 274.084 220.487,274.004 220.298,272.659 219.030 C 270.170 216.683,266.597 216.153,263.699 217.703 M165.306 218.066 C 164.191 218.756,163.820 218.803,162.614 218.405 C 160.419 217.680,160.400 217.750,160.400 226.624 L 160.400 234.800 161.572 234.800 L 162.744 234.800 162.872 228.683 C 163.018 221.724,163.519 220.456,166.459 219.611 C 167.780 219.231,168.400 218.579,168.400 217.567 C 168.400 216.945,166.668 217.224,165.306 218.066 M150.269 224.168 C 153.882 226.354,153.153 231.435,148.999 233.022 C 146.381 234.022,140.114 233.608,139.100 232.368 C 138.165 231.224,138.098 225.409,139.005 224.114 C 140.016 222.671,147.857 222.708,150.269 224.168 M159.600 422.000 C 159.600 422.220,159.870 422.400,160.200 422.400 C 160.530 422.400,160.800 422.220,160.800 422.000 C 160.800 421.780,160.530 421.600,160.200 421.600 C 159.870 421.600,159.600 421.780,159.600 422.000 " stroke="none" fill="#7d3777" fill-rule="evenodd"></path><path id="path1" d="M0.000 215.200 L 0.000 430.400 200.000 430.400 L 400.000 430.400 400.000 215.200 L 400.000 0.000 200.000 0.000 L 0.000 0.000 0.000 215.200 M127.707 94.400 C 128.084 94.840,128.664 95.200,128.996 95.200 C 129.328 95.200,129.600 95.341,129.600 95.513 C 129.600 95.685,129.950 96.270,130.378 96.813 C 133.749 101.091,137.068 105.388,137.400 105.906 C 137.620 106.249,138.070 106.838,138.400 107.214 C 141.022 110.202,143.600 113.774,143.600 114.418 C 143.600 114.628,143.870 114.800,144.200 114.800 C 144.530 114.800,144.800 114.976,144.800 115.192 C 144.800 115.534,148.432 120.326,150.867 123.197 C 151.332 123.746,152.140 124.871,152.661 125.697 C 153.183 126.524,153.788 127.200,154.005 127.200 C 154.222 127.200,154.400 127.430,154.400 127.712 C 154.400 127.993,154.988 128.848,155.708 129.612 C 156.427 130.375,157.551 131.810,158.206 132.800 C 158.862 133.790,159.516 134.690,159.660 134.800 C 160.008 135.066,163.638 139.664,164.400 140.804 C 165.244 142.069,166.478 143.568,167.300 144.329 C 168.397 145.345,168.147 146.836,166.598 148.522 C 165.829 149.360,165.200 150.139,165.200 150.254 C 165.200 150.369,164.152 151.754,162.872 153.331 C 161.591 154.909,159.763 157.280,158.808 158.600 C 157.854 159.920,156.786 161.298,156.436 161.663 C 156.086 162.028,155.440 162.791,155.000 163.359 C 154.560 163.927,153.795 164.853,153.300 165.417 C 152.805 165.980,152.400 166.567,152.400 166.721 C 152.400 166.874,151.815 167.680,151.100 168.510 C 149.611 170.240,149.103 170.885,146.620 174.200 C 145.631 175.520,144.613 176.844,144.356 177.142 C 144.100 177.440,143.012 178.790,141.938 180.142 C 140.865 181.494,139.494 183.199,138.893 183.932 C 138.292 184.665,137.710 185.485,137.600 185.756 C 137.250 186.617,133.496 191.200,133.141 191.200 C 132.953 191.200,132.800 191.430,132.800 191.711 C 132.800 191.992,132.485 192.514,132.100 192.870 C 131.715 193.226,130.861 194.268,130.202 195.186 C 127.859 198.452,128.055 198.412,114.240 198.492 C 102.397 198.560,101.973 198.536,100.904 197.727 C 99.617 196.753,99.412 194.220,100.552 193.386 C 100.908 193.125,101.200 192.701,101.200 192.443 C 101.200 192.186,101.470 191.871,101.800 191.745 C 102.130 191.618,102.400 191.355,102.400 191.160 C 102.400 190.966,103.795 189.047,105.500 186.896 C 107.205 184.745,109.034 182.358,109.565 181.592 C 110.095 180.827,110.777 179.930,111.080 179.600 C 111.384 179.270,112.439 177.920,113.427 176.600 C 114.414 175.280,115.802 173.506,116.511 172.657 C 117.220 171.808,117.962 170.818,118.159 170.457 C 118.356 170.096,119.346 168.823,120.359 167.628 C 121.372 166.434,122.470 165.055,122.800 164.565 C 123.977 162.815,130.349 154.585,131.167 153.758 C 131.625 153.295,132.000 152.770,132.000 152.591 C 132.000 152.413,132.270 151.982,132.601 151.634 C 135.397 148.684,137.367 144.800,136.067 144.800 C 135.884 144.800,135.125 143.855,134.381 142.700 C 132.865 140.349,132.956 140.467,130.783 138.017 C 129.913 137.036,129.100 135.914,128.976 135.523 C 128.852 135.133,128.087 134.110,127.275 133.251 C 126.464 132.391,125.440 131.191,125.000 130.585 C 124.101 129.346,121.261 125.682,120.506 124.786 C 118.951 122.942,118.000 121.647,118.000 121.376 C 118.000 121.206,117.734 120.782,117.409 120.434 C 115.001 117.852,113.569 116.092,113.363 115.461 C 113.230 115.054,112.824 114.414,112.461 114.038 C 111.857 113.415,111.305 112.751,108.219 108.942 C 107.659 108.250,107.200 107.485,107.200 107.242 C 107.200 106.999,107.063 106.800,106.895 106.800 C 106.727 106.800,105.692 105.615,104.595 104.166 C 103.498 102.718,102.285 101.188,101.900 100.766 C 101.515 100.345,101.200 99.860,101.200 99.689 C 101.200 99.518,100.840 99.070,100.400 98.693 C 99.196 97.662,99.327 95.473,100.654 94.429 C 102.267 93.160,126.623 93.134,127.707 94.400 M121.771 146.229 C 123.006 147.463,122.190 150.130,119.759 152.800 C 118.822 153.829,113.056 161.319,111.906 163.000 C 111.304 163.880,110.224 165.265,109.506 166.077 C 108.788 166.889,107.302 168.734,106.205 170.177 C 105.108 171.620,104.073 172.800,103.905 172.800 C 103.737 172.800,103.600 172.975,103.600 173.188 C 103.600 173.735,101.115 177.200,100.723 177.200 C 100.545 177.200,100.400 177.410,100.400 177.666 C 100.400 177.923,100.133 178.418,99.808 178.766 C 98.791 179.854,97.446 181.512,96.223 183.188 C 95.576 184.075,94.901 184.800,94.723 184.800 C 94.545 184.800,94.400 185.068,94.400 185.397 C 94.400 185.725,94.040 186.218,93.600 186.493 C 93.160 186.768,92.800 187.148,92.800 187.338 C 92.800 187.677,91.390 189.570,90.198 190.834 C 89.869 191.182,89.600 191.587,89.600 191.734 C 89.600 191.880,89.285 192.333,88.900 192.740 C 88.122 193.563,87.441 194.431,86.093 196.317 L 85.185 197.587 86.659 199.694 C 88.263 201.985,91.240 205.823,92.199 206.834 C 92.530 207.182,92.800 207.634,92.800 207.837 C 92.800 208.041,93.160 208.432,93.600 208.707 C 94.040 208.982,94.400 209.385,94.400 209.603 C 94.400 209.976,94.976 210.693,96.819 212.614 C 97.249 213.062,97.600 213.607,97.600 213.825 C 97.600 214.043,98.110 214.781,98.734 215.464 C 99.358 216.147,100.381 217.582,101.008 218.653 C 101.635 219.724,102.851 221.320,103.710 222.200 C 105.835 224.377,106.518 225.176,107.580 226.723 C 108.079 227.451,109.014 228.621,109.656 229.323 C 110.299 230.025,111.311 231.320,111.904 232.200 C 113.351 234.345,115.615 237.261,116.408 238.000 C 116.762 238.330,117.400 239.120,117.826 239.756 C 118.252 240.392,118.780 241.182,119.000 241.511 C 119.220 241.840,119.984 242.760,120.698 243.555 C 122.179 245.202,122.641 246.913,122.036 248.504 L 121.620 249.600 107.910 249.596 L 94.200 249.592 92.400 247.536 C 91.410 246.406,90.195 245.031,89.700 244.482 C 89.205 243.933,88.800 243.357,88.800 243.203 C 88.800 243.049,88.485 242.544,88.100 242.081 C 87.715 241.619,87.040 240.786,86.600 240.230 C 86.160 239.675,85.285 238.630,84.656 237.910 C 84.027 237.189,83.094 235.946,82.581 235.148 C 82.069 234.349,81.234 233.228,80.725 232.657 C 80.216 232.086,79.350 230.967,78.800 230.171 C 78.250 229.374,77.485 228.430,77.100 228.072 C 76.715 227.715,76.400 227.291,76.400 227.132 C 76.400 226.972,75.931 226.337,75.358 225.721 C 74.785 225.104,73.676 223.638,72.894 222.463 C 72.113 221.288,71.232 220.234,70.937 220.120 C 70.641 220.007,70.395 219.709,70.389 219.457 C 70.383 219.206,69.874 218.506,69.258 217.902 C 68.641 217.298,67.881 216.308,67.569 215.702 C 67.256 215.096,66.793 214.420,66.541 214.200 C 65.694 213.462,62.562 209.408,62.292 208.700 C 62.145 208.315,61.839 208.000,61.613 208.000 C 61.386 208.000,61.200 207.770,61.200 207.489 C 61.200 207.208,60.885 206.688,60.500 206.334 C 60.115 205.981,59.483 205.266,59.096 204.746 C 58.710 204.225,57.945 203.234,57.396 202.542 C 56.848 201.850,56.400 201.085,56.400 200.842 C 56.400 200.599,56.168 200.400,55.883 200.400 C 55.599 200.400,55.071 199.748,54.710 198.950 C 53.981 197.343,54.197 196.814,57.138 193.000 C 57.817 192.120,58.694 190.978,59.086 190.463 C 59.479 189.948,60.086 189.228,60.436 188.863 C 60.786 188.498,61.850 187.120,62.800 185.800 C 63.750 184.480,64.814 183.092,65.164 182.716 C 65.514 182.339,66.160 181.560,66.600 180.984 C 67.040 180.407,67.584 179.725,67.808 179.468 C 68.033 179.211,68.903 178.055,69.742 176.900 C 70.581 175.745,71.433 174.800,71.634 174.800 C 71.835 174.800,72.000 174.539,72.000 174.220 C 72.000 173.901,72.226 173.496,72.501 173.320 C 72.777 173.144,73.536 172.190,74.187 171.200 C 74.839 170.210,75.649 169.103,75.986 168.740 C 77.235 167.398,79.172 164.954,80.218 163.400 C 80.810 162.520,81.535 161.530,81.829 161.200 C 82.123 160.870,82.686 160.234,83.081 159.787 C 83.477 159.339,84.340 158.172,85.000 157.192 C 85.660 156.212,86.785 154.817,87.500 154.092 C 88.215 153.367,88.800 152.670,88.800 152.544 C 88.800 152.419,89.258 151.750,89.817 151.058 C 91.227 149.314,92.029 148.272,92.338 147.786 C 93.699 145.639,93.982 145.600,108.025 145.600 C 119.417 145.600,121.226 145.683,121.771 146.229 M150.920 209.446 C 154.883 211.445,156.167 214.849,154.627 219.277 C 153.667 222.039,153.657 222.165,154.365 222.661 C 158.973 225.888,156.317 234.687,150.219 236.395 C 146.792 237.354,136.402 237.090,135.537 236.022 C 134.500 234.741,134.397 211.153,135.423 209.689 C 136.251 208.507,148.671 208.312,150.920 209.446 M214.685 210.000 C 215.008 210.643,215.190 212.795,215.194 216.024 C 215.199 219.814,215.344 221.238,215.787 221.824 C 216.110 222.251,216.380 222.400,216.387 222.156 C 216.409 221.414,221.314 216.738,222.687 216.150 C 227.059 214.281,227.568 217.081,223.605 221.195 C 220.489 224.429,220.394 223.940,225.655 231.795 C 228.203 235.600,226.862 238.026,223.023 236.554 C 222.411 236.319,219.600 232.436,219.600 231.826 C 219.600 231.411,216.762 228.000,216.416 228.000 C 215.792 228.000,215.200 230.158,215.200 232.433 C 215.200 236.344,212.753 238.381,211.023 235.911 C 210.078 234.562,210.092 211.017,211.038 209.667 C 211.918 208.411,213.980 208.599,214.685 210.000 M254.552 211.300 C 254.865 211.795,255.244 212.786,255.393 213.501 C 255.542 214.217,256.190 215.328,256.832 215.971 C 258.505 217.643,258.373 219.589,256.548 220.158 C 255.444 220.502,255.266 221.585,255.431 226.949 L 255.564 231.298 256.982 232.716 C 258.648 234.381,258.621 234.233,257.575 235.949 C 256.781 237.250,256.682 237.290,254.718 237.102 C 251.044 236.749,250.400 235.207,250.400 226.764 L 250.400 220.380 249.395 219.998 C 247.721 219.362,247.211 217.673,248.414 216.753 C 248.956 216.339,249.625 215.813,249.900 215.584 C 250.175 215.356,250.400 214.456,250.400 213.584 C 250.400 210.803,253.245 209.237,254.552 211.300 M140.469 214.116 C 140.147 214.505,140.003 215.594,140.079 217.066 L 140.200 219.400 144.256 219.400 C 149.432 219.400,151.883 217.028,149.207 214.607 C 148.083 213.589,141.226 213.205,140.469 214.116 M169.418 216.172 C 170.880 218.403,169.744 220.290,166.238 221.455 C 164.586 222.004,164.014 224.249,164.006 230.211 C 163.999 235.670,163.588 236.800,161.606 236.800 C 159.025 236.800,158.742 235.697,158.879 226.160 C 159.022 216.124,159.725 214.540,163.204 216.402 C 163.756 216.697,164.465 216.597,165.878 216.024 C 168.385 215.006,168.662 215.018,169.418 216.172 M184.372 216.186 C 187.650 217.847,188.164 219.117,188.342 226.000 C 188.468 230.884,188.611 231.968,189.246 232.862 C 191.535 236.084,188.820 238.386,185.157 236.328 L 183.605 235.456 181.859 236.328 C 176.462 239.023,170.600 236.310,170.600 231.117 C 170.600 227.027,172.790 225.048,178.636 223.856 C 184.015 222.759,184.252 220.000,178.966 220.000 C 178.390 220.000,177.465 220.613,176.552 221.600 C 174.938 223.344,172.731 223.839,172.243 222.567 C 170.299 217.501,178.476 213.198,184.372 216.186 M204.587 216.309 C 205.680 216.909,206.985 218.012,207.487 218.759 C 210.262 222.891,206.472 226.260,203.580 222.232 C 201.136 218.829,197.746 219.664,196.450 223.989 C 195.568 226.933,196.558 231.386,198.242 232.046 C 199.634 232.592,201.581 232.422,202.207 231.700 C 204.677 228.850,205.237 228.400,206.307 228.400 C 209.983 228.400,208.436 234.349,204.230 236.385 C 199.321 238.762,193.748 236.534,191.670 231.364 C 187.854 221.870,196.455 211.846,204.587 216.309 M240.475 215.900 C 243.732 217.051,246.123 219.739,246.804 223.017 C 247.733 227.492,247.152 227.944,240.060 228.267 C 233.917 228.546,233.534 228.723,234.358 230.891 C 235.086 232.805,240.104 232.977,241.245 231.127 C 243.169 228.006,245.392 227.679,246.333 230.379 C 246.731 231.522,246.637 231.770,245.082 233.671 C 239.855 240.063,231.048 238.162,228.395 230.070 L 227.446 227.175 228.208 224.116 C 229.890 217.362,234.973 213.957,240.475 215.900 M270.400 215.900 C 273.548 217.124,275.459 219.430,274.962 221.407 C 274.401 223.643,272.482 223.724,270.400 221.600 C 268.248 219.404,264.622 219.360,264.878 221.533 C 264.985 222.430,265.383 222.686,268.000 223.538 C 274.541 225.666,275.800 226.809,275.800 230.616 C 275.800 238.310,263.062 240.417,259.494 233.312 C 257.722 229.785,260.950 227.271,263.252 230.385 C 264.887 232.597,268.466 233.439,270.180 232.017 C 270.852 231.459,270.488 229.673,269.656 229.451 C 264.305 228.021,262.524 227.287,261.075 225.918 L 259.508 224.436 259.668 221.595 C 259.949 216.620,265.151 213.860,270.400 215.900 M236.550 220.292 C 235.388 220.498,233.896 222.165,234.069 223.064 C 234.316 224.346,240.950 224.155,241.133 222.860 C 241.368 221.197,238.982 219.860,236.550 220.292 M140.169 225.337 C 140.055 225.633,140.016 227.208,140.081 228.837 L 140.200 231.800 143.200 231.925 C 149.253 232.177,150.880 231.371,150.880 228.123 C 150.880 225.477,149.594 224.800,144.565 224.800 C 141.426 224.800,140.323 224.935,140.169 225.337 M177.900 228.864 C 173.740 230.699,176.488 233.393,181.058 231.960 C 182.315 231.566,182.783 230.741,182.795 228.900 C 182.802 227.701,180.575 227.684,177.900 228.864 M162.800 421.400 C 163.910 422.738,160.601 423.866,158.233 422.957 C 157.480 422.669,157.388 421.352,158.100 421.065 C 159.252 420.600,162.317 420.819,162.800 421.400 M171.072 421.280 C 172.807 421.908,172.748 422.264,170.809 422.844 C 168.149 423.642,164.920 422.165,167.267 421.225 C 168.560 420.706,169.523 420.720,171.072 421.280 M175.424 422.362 C 175.275 422.603,174.803 422.800,174.376 422.800 C 173.501 422.800,173.274 421.388,174.100 421.081 C 174.764 420.835,175.767 421.805,175.424 422.362 M180.800 422.000 C 180.800 422.525,179.263 423.286,178.792 422.995 C 178.231 422.648,178.308 421.300,178.900 421.087 C 179.510 420.868,180.800 421.488,180.800 422.000 M184.800 422.043 C 184.800 422.579,184.515 422.800,183.824 422.800 C 182.551 422.800,182.089 422.017,182.978 421.367 C 183.868 420.716,184.800 421.061,184.800 422.043 M192.624 421.400 C 194.238 422.648,191.253 423.754,189.019 422.736 C 187.711 422.140,187.732 421.765,189.100 421.265 C 190.701 420.680,191.744 420.720,192.624 421.400 M201.328 421.568 C 201.979 422.219,201.164 422.827,199.306 423.076 C 197.711 423.290,196.000 422.719,196.000 421.973 C 196.000 420.881,200.313 420.553,201.328 421.568 M210.724 422.647 C 209.971 423.401,209.200 423.078,209.200 422.010 C 209.200 421.044,210.041 420.746,210.786 421.448 C 211.299 421.932,211.292 422.080,210.724 422.647 M155.000 422.000 C 155.000 422.719,152.889 423.003,152.000 422.404 C 151.467 422.045,151.467 421.955,152.000 421.596 C 152.889 420.997,155.000 421.281,155.000 422.000 M206.224 421.638 C 206.373 421.879,206.240 422.331,205.929 422.642 C 205.247 423.325,203.674 422.451,204.162 421.661 C 204.524 421.076,205.867 421.061,206.224 421.638 M216.000 421.606 C 216.533 421.956,216.533 422.044,216.000 422.394 C 214.871 423.135,213.598 422.574,214.200 421.600 C 214.512 421.095,215.226 421.098,216.000 421.606 M313.200 421.606 C 313.889 422.058,313.148 422.788,312.000 422.788 C 310.852 422.788,310.111 422.058,310.800 421.606 C 311.130 421.389,311.670 421.212,312.000 421.212 C 312.330 421.212,312.870 421.389,313.200 421.606 " stroke="none" fill="#fbfbfb" fill-rule="evenodd"></path><path id="path2" d="M98.071 146.818 C 98.900 147.013,98.921 147.067,98.267 147.318 C 97.157 147.745,96.085 147.656,95.908 147.123 C 95.738 146.615,92.800 148.611,92.800 149.234 C 92.800 149.421,91.984 150.524,90.986 151.687 C 89.988 152.849,89.040 153.980,88.880 154.200 C 88.719 154.420,87.900 155.545,87.060 156.700 C 86.220 157.855,85.744 158.800,86.003 158.800 C 86.263 158.800,86.569 158.440,86.684 158.000 C 86.799 157.560,87.121 157.200,87.400 157.200 C 87.679 157.200,88.001 156.840,88.116 156.400 C 88.231 155.960,88.612 155.600,88.963 155.600 C 89.808 155.600,89.767 156.070,88.833 157.072 C 88.412 157.525,87.599 158.819,87.027 159.947 C 86.455 161.076,85.803 162.000,85.579 162.000 C 85.311 162.000,85.319 162.274,85.603 162.805 C 86.213 163.945,85.565 165.122,84.821 164.225 C 83.960 163.188,83.665 163.515,84.033 165.100 C 84.498 167.102,84.489 167.200,83.843 167.200 C 83.256 167.200,82.800 168.032,82.800 169.101 C 82.800 169.451,82.507 170.061,82.148 170.457 C 81.547 171.121,81.547 171.376,82.142 173.746 C 82.497 175.159,82.767 177.242,82.741 178.376 C 82.705 179.956,82.889 180.643,83.528 181.324 C 83.987 181.812,84.630 182.838,84.957 183.605 C 85.501 184.880,87.356 187.200,87.830 187.200 C 88.337 187.200,90.309 185.654,91.551 184.282 C 93.423 182.214,94.010 182.952,92.396 185.344 C 91.707 186.365,90.976 187.200,90.772 187.200 C 90.567 187.200,90.400 187.485,90.400 187.834 C 90.400 188.572,90.992 187.935,93.778 184.200 C 94.763 182.880,95.816 181.530,96.118 181.200 C 96.653 180.615,103.204 171.984,104.400 170.287 C 104.730 169.819,105.495 168.893,106.100 168.229 C 106.705 167.565,107.200 166.895,107.200 166.739 C 107.200 166.584,107.431 166.219,107.714 165.929 C 108.112 165.518,112.690 159.556,116.200 154.876 C 116.420 154.583,116.915 153.996,117.300 153.571 C 117.685 153.147,118.003 152.665,118.007 152.500 C 118.011 152.335,118.461 151.776,119.007 151.258 C 119.553 150.740,120.000 150.142,120.000 149.929 C 120.000 149.717,120.284 149.259,120.630 148.913 C 122.386 147.157,120.715 146.856,108.471 146.723 C 102.239 146.655,97.559 146.698,98.071 146.818 M95.508 148.475 C 95.261 149.217,94.400 149.340,94.400 148.633 C 94.400 148.285,94.685 148.000,95.033 148.000 C 95.382 148.000,95.595 148.214,95.508 148.475 M93.525 150.866 C 93.430 151.829,93.094 152.285,92.125 152.766 C 91.423 153.115,90.745 153.805,90.617 154.300 C 90.489 154.795,90.189 155.200,89.950 155.200 C 89.710 155.200,89.624 154.915,89.757 154.567 C 89.891 154.219,90.000 153.679,90.000 153.367 C 90.000 153.055,90.270 152.800,90.600 152.800 C 90.930 152.800,91.200 152.524,91.200 152.187 C 91.200 151.851,91.463 151.474,91.785 151.350 C 92.106 151.227,92.479 150.783,92.612 150.363 C 93.004 149.128,93.662 149.490,93.525 150.866 M131.031 155.900 C 130.258 156.945,129.268 158.250,128.831 158.800 C 128.394 159.350,126.667 161.600,124.995 163.800 C 120.973 169.090,120.329 169.914,119.500 170.828 C 119.115 171.253,118.800 171.740,118.800 171.911 C 118.800 172.082,118.485 172.519,118.100 172.882 C 117.715 173.245,115.960 175.458,114.200 177.799 C 112.440 180.141,109.605 183.842,107.900 186.024 C 106.195 188.207,104.800 190.084,104.800 190.196 C 104.800 190.308,104.485 190.747,104.100 191.171 C 103.029 192.352,102.654 192.873,101.696 194.512 L 100.812 196.025 101.832 196.412 C 102.409 196.632,108.124 196.800,114.995 196.800 L 127.138 196.800 129.069 194.518 C 130.131 193.263,131.270 191.941,131.600 191.579 C 131.930 191.218,132.560 190.411,133.000 189.786 C 133.440 189.162,135.139 186.930,136.775 184.826 C 139.100 181.835,139.432 181.262,138.293 182.200 C 137.492 182.860,136.720 183.799,136.578 184.286 C 136.437 184.773,135.978 185.280,135.560 185.413 C 135.142 185.545,134.800 186.002,134.800 186.427 C 134.800 186.852,134.565 187.200,134.277 187.200 C 133.990 187.200,133.566 187.695,133.336 188.300 C 132.968 189.266,132.879 189.311,132.606 188.674 C 132.384 188.157,132.659 187.467,133.562 186.274 C 134.260 185.353,135.021 184.105,135.254 183.500 C 135.487 182.895,135.821 182.400,135.996 182.400 C 136.170 182.400,136.432 181.925,136.578 181.345 C 136.724 180.765,137.290 179.705,137.836 178.988 C 138.382 178.272,138.907 177.283,139.002 176.790 C 139.097 176.296,139.540 175.637,139.987 175.324 C 141.029 174.594,141.036 173.600,140.000 173.600 C 139.175 173.600,138.871 172.576,139.622 172.326 C 140.741 171.953,139.733 164.045,138.214 161.279 C 135.719 156.733,133.533 155.617,131.777 157.991 C 130.462 159.768,129.370 160.165,129.827 158.700 C 129.981 158.205,130.280 157.689,130.490 157.554 C 130.700 157.419,131.081 156.946,131.336 156.503 C 131.591 156.060,132.031 155.316,132.314 154.849 C 133.236 153.327,132.470 153.955,131.031 155.900 M129.200 160.576 C 129.200 160.893,129.032 161.256,128.828 161.383 C 128.352 161.677,127.874 160.928,128.200 160.400 C 128.568 159.805,129.200 159.916,129.200 160.576 M131.994 189.700 C 131.991 189.975,131.833 190.444,131.644 190.743 C 131.200 191.444,130.708 190.704,131.041 189.836 C 131.331 189.082,132.003 188.986,131.994 189.700 M130.327 192.200 C 130.077 192.750,129.630 193.200,129.336 193.200 C 129.041 193.200,128.800 193.470,128.800 193.800 C 128.800 194.130,128.620 194.400,128.400 194.400 C 127.795 194.400,127.921 193.091,128.623 192.089 C 129.546 190.770,130.937 190.861,130.327 192.200 M127.383 195.572 C 127.679 196.051,126.926 196.525,126.393 196.196 C 125.946 195.919,126.240 195.200,126.800 195.200 C 126.994 195.200,127.256 195.368,127.383 195.572 " stroke="none" fill="#c74765" fill-rule="evenodd"></path><path id="path3" d="M100.654 94.429 C 99.327 95.473,99.196 97.662,100.400 98.693 C 100.840 99.070,101.200 99.518,101.200 99.689 C 101.200 99.860,101.515 100.345,101.900 100.766 C 102.285 101.188,103.498 102.718,104.595 104.166 C 105.692 105.615,106.727 106.800,106.895 106.800 C 107.063 106.800,107.200 106.999,107.200 107.242 C 107.200 107.485,107.659 108.250,108.219 108.942 C 111.305 112.751,111.857 113.415,112.461 114.038 C 112.824 114.414,113.230 115.054,113.363 115.461 C 113.569 116.092,115.001 117.852,117.409 120.434 C 117.734 120.782,118.000 121.206,118.000 121.376 C 118.000 121.647,118.951 122.942,120.506 124.786 C 121.261 125.682,124.101 129.346,125.000 130.585 C 125.440 131.191,126.464 132.391,127.275 133.251 C 128.087 134.110,128.852 135.133,128.976 135.523 C 129.100 135.914,129.913 137.036,130.783 138.017 C 132.956 140.467,132.865 140.349,134.381 142.700 C 135.125 143.855,135.884 144.800,136.067 144.800 C 137.367 144.800,135.397 148.684,132.601 151.634 C 132.270 151.982,132.000 152.413,132.000 152.591 C 132.000 152.770,131.625 153.295,131.167 153.758 C 130.349 154.585,123.977 162.815,122.800 164.565 C 122.470 165.055,121.372 166.434,120.359 167.628 C 119.346 168.823,118.356 170.096,118.159 170.457 C 117.962 170.818,117.220 171.808,116.511 172.657 C 115.802 173.506,114.414 175.280,113.427 176.600 C 112.439 177.920,111.384 179.270,111.080 179.600 C 110.777 179.930,110.095 180.827,109.565 181.592 C 109.034 182.358,107.205 184.745,105.500 186.896 C 103.795 189.047,102.400 190.966,102.400 191.160 C 102.400 191.355,102.130 191.618,101.800 191.745 C 101.470 191.871,101.200 192.186,101.200 192.443 C 101.200 192.701,100.908 193.125,100.552 193.386 C 99.412 194.220,99.617 196.753,100.904 197.727 C 101.973 198.536,102.397 198.560,114.240 198.492 C 128.055 198.412,127.859 198.452,130.202 195.186 C 130.861 194.268,131.715 193.226,132.100 192.870 C 132.485 192.514,132.800 191.992,132.800 191.711 C 132.800 191.430,132.953 191.200,133.141 191.200 C 133.496 191.200,137.250 186.617,137.600 185.756 C 137.710 185.485,138.292 184.665,138.893 183.932 C 139.494 183.199,140.865 181.494,141.938 180.142 C 143.012 178.790,144.100 177.440,144.356 177.142 C 144.613 176.844,145.631 175.520,146.620 174.200 C 149.103 170.885,149.611 170.240,151.100 168.510 C 151.815 167.680,152.400 166.874,152.400 166.721 C 152.400 166.567,152.805 165.980,153.300 165.417 C 153.795 164.853,154.560 163.927,155.000 163.359 C 155.440 162.791,156.086 162.028,156.436 161.663 C 156.786 161.298,157.854 159.920,158.808 158.600 C 159.763 157.280,161.591 154.909,162.872 153.331 C 164.152 151.754,165.200 150.369,165.200 150.254 C 165.200 150.139,165.829 149.360,166.598 148.522 C 168.147 146.836,168.397 145.345,167.300 144.329 C 166.478 143.568,165.244 142.069,164.400 140.804 C 163.638 139.664,160.008 135.066,159.660 134.800 C 159.516 134.690,158.862 133.790,158.206 132.800 C 157.551 131.810,156.427 130.375,155.708 129.612 C 154.988 128.848,154.400 127.993,154.400 127.712 C 154.400 127.430,154.222 127.200,154.005 127.200 C 153.788 127.200,153.183 126.524,152.661 125.697 C 152.140 124.871,151.332 123.746,150.867 123.197 C 148.432 120.326,144.800 115.534,144.800 115.192 C 144.800 114.976,144.530 114.800,144.200 114.800 C 143.870 114.800,143.600 114.628,143.600 114.418 C 143.600 113.774,141.022 110.202,138.400 107.214 C 138.070 106.838,137.620 106.249,137.400 105.906 C 137.068 105.388,133.749 101.091,130.378 96.813 C 129.950 96.270,129.600 95.685,129.600 95.513 C 129.600 95.341,129.328 95.200,128.996 95.200 C 128.664 95.200,128.084 94.840,127.707 94.400 C 126.623 93.134,102.267 93.160,100.654 94.429 M127.102 95.007 C 128.104 95.409,129.112 96.227,129.716 97.130 C 130.256 97.939,131.176 99.140,131.760 99.800 C 132.959 101.154,132.855 101.022,135.076 104.000 C 135.978 105.210,138.278 108.180,140.187 110.600 C 142.096 113.020,144.407 115.990,145.323 117.200 C 146.238 118.410,149.150 122.159,151.794 125.530 C 154.437 128.902,156.863 132.052,157.184 132.530 C 157.505 133.009,158.369 134.120,159.104 135.000 C 159.839 135.880,160.574 136.780,160.738 137.000 C 160.901 137.220,161.770 138.390,162.669 139.600 C 163.568 140.810,164.953 142.610,165.748 143.600 C 167.485 145.765,167.533 146.374,166.100 148.087 C 165.495 148.811,164.820 149.696,164.600 150.055 C 164.380 150.413,162.366 153.023,160.124 155.853 C 154.612 162.812,147.978 171.297,147.000 172.638 C 146.560 173.241,145.064 175.189,143.675 176.967 C 142.286 178.745,140.267 181.370,139.188 182.800 C 138.110 184.230,136.876 185.850,136.446 186.400 C 136.016 186.950,134.120 189.380,132.232 191.800 C 127.165 198.297,128.042 197.986,114.760 197.993 C 97.548 198.004,97.527 197.982,105.200 188.177 C 114.347 176.488,122.251 166.259,122.869 165.311 C 123.237 164.747,123.693 164.176,123.883 164.043 C 124.072 163.909,125.799 161.730,127.720 159.200 C 129.641 156.670,132.555 152.890,134.196 150.800 C 137.094 147.108,137.865 145.258,136.784 144.590 C 136.555 144.449,135.946 143.673,135.431 142.866 C 134.915 142.060,132.228 138.520,129.460 135.000 C 126.691 131.480,123.505 127.430,122.381 126.000 C 121.256 124.570,118.819 121.420,116.965 119.000 C 115.111 116.580,113.325 114.315,112.997 113.966 C 112.669 113.618,112.400 113.123,112.400 112.866 C 112.400 112.610,112.253 112.400,112.072 112.400 C 111.892 112.400,110.775 111.095,109.590 109.500 C 108.405 107.905,105.763 104.470,103.718 101.866 C 99.702 96.752,99.354 95.832,101.148 95.081 C 103.131 94.250,125.055 94.188,127.102 95.007 M93.754 146.486 C 93.119 146.974,92.482 147.559,92.338 147.786 C 92.029 148.272,91.227 149.314,89.817 151.058 C 89.258 151.750,88.800 152.419,88.800 152.544 C 88.800 152.670,88.215 153.367,87.500 154.092 C 86.785 154.817,85.660 156.212,85.000 157.192 C 84.340 158.172,83.477 159.339,83.081 159.787 C 82.686 160.234,82.123 160.870,81.829 161.200 C 81.535 161.530,80.810 162.520,80.218 163.400 C 79.172 164.954,77.235 167.398,75.986 168.740 C 75.649 169.103,74.839 170.210,74.187 171.200 C 73.536 172.190,72.777 173.144,72.501 173.320 C 72.226 173.496,72.000 173.901,72.000 174.220 C 72.000 174.539,71.835 174.800,71.634 174.800 C 71.433 174.800,70.581 175.745,69.742 176.900 C 68.903 178.055,68.033 179.211,67.808 179.468 C 67.584 179.725,67.040 180.407,66.600 180.984 C 66.160 181.560,65.514 182.339,65.164 182.716 C 64.814 183.092,63.750 184.480,62.800 185.800 C 61.850 187.120,60.786 188.498,60.436 188.863 C 60.086 189.228,59.479 189.948,59.086 190.463 C 58.694 190.978,57.817 192.120,57.138 193.000 C 54.197 196.814,53.981 197.343,54.710 198.950 C 55.071 199.748,55.599 200.400,55.883 200.400 C 56.168 200.400,56.400 200.599,56.400 200.842 C 56.400 201.085,56.848 201.850,57.396 202.542 C 57.945 203.234,58.710 204.225,59.096 204.746 C 59.483 205.266,60.115 205.981,60.500 206.334 C 60.885 206.688,61.200 207.208,61.200 207.489 C 61.200 207.770,61.386 208.000,61.613 208.000 C 61.839 208.000,62.145 208.315,62.292 208.700 C 62.562 209.408,65.694 213.462,66.541 214.200 C 66.793 214.420,67.256 215.096,67.569 215.702 C 67.881 216.308,68.641 217.298,69.258 217.902 C 69.874 218.506,70.383 219.206,70.389 219.457 C 70.395 219.709,70.641 220.007,70.937 220.120 C 71.232 220.234,72.113 221.288,72.894 222.463 C 73.676 223.638,74.785 225.104,75.358 225.721 C 75.931 226.337,76.400 226.972,76.400 227.132 C 76.400 227.291,76.715 227.715,77.100 228.072 C 77.485 228.430,78.250 229.374,78.800 230.171 C 79.350 230.967,80.216 232.086,80.725 232.657 C 81.234 233.228,82.069 234.349,82.581 235.148 C 83.094 235.946,84.027 237.189,84.656 237.910 C 85.285 238.630,86.160 239.675,86.600 240.230 C 87.040 240.786,87.715 241.619,88.100 242.081 C 88.485 242.544,88.800 243.049,88.800 243.203 C 88.800 243.357,89.205 243.933,89.700 244.482 C 90.195 245.031,91.410 246.406,92.400 247.536 L 94.200 249.592 107.910 249.596 L 121.620 249.600 122.036 248.504 C 122.641 246.913,122.179 245.202,120.698 243.555 C 119.984 242.760,119.220 241.840,119.000 241.511 C 118.780 241.182,118.252 240.392,117.826 239.756 C 117.400 239.120,116.762 238.330,116.408 238.000 C 115.615 237.261,113.351 234.345,111.904 232.200 C 111.311 231.320,110.299 230.025,109.656 229.323 C 109.014 228.621,108.079 227.451,107.580 226.723 C 106.518 225.176,105.835 224.377,103.710 222.200 C 102.851 221.320,101.635 219.724,101.008 218.653 C 100.381 217.582,99.358 216.147,98.734 215.464 C 98.110 214.781,97.600 214.043,97.600 213.825 C 97.600 213.607,97.249 213.062,96.819 212.614 C 94.976 210.693,94.400 209.976,94.400 209.603 C 94.400 209.385,94.040 208.982,93.600 208.707 C 93.160 208.432,92.800 208.041,92.800 207.837 C 92.800 207.634,92.530 207.182,92.199 206.834 C 91.240 205.823,88.263 201.985,86.659 199.694 L 85.185 197.587 86.093 196.317 C 87.441 194.431,88.122 193.563,88.900 192.740 C 89.285 192.333,89.600 191.880,89.600 191.734 C 89.600 191.587,89.869 191.182,90.198 190.834 C 91.390 189.570,92.800 187.677,92.800 187.338 C 92.800 187.148,93.160 186.768,93.600 186.493 C 94.040 186.218,94.400 185.725,94.400 185.397 C 94.400 185.068,94.545 184.800,94.723 184.800 C 94.901 184.800,95.576 184.075,96.223 183.188 C 97.446 181.512,98.791 179.854,99.808 178.766 C 100.133 178.418,100.400 177.923,100.400 177.666 C 100.400 177.410,100.545 177.200,100.723 177.200 C 101.115 177.200,103.600 173.735,103.600 173.188 C 103.600 172.975,103.737 172.800,103.905 172.800 C 104.073 172.800,105.108 171.620,106.205 170.177 C 107.302 168.734,108.788 166.889,109.506 166.077 C 110.224 165.265,111.304 163.880,111.906 163.000 C 113.056 161.319,118.822 153.829,119.759 152.800 C 122.190 150.130,123.006 147.463,121.771 146.229 C 120.617 145.074,95.290 145.307,93.754 146.486 M120.974 146.531 C 122.389 147.566,121.753 149.404,118.625 153.324 C 114.700 158.242,112.293 161.334,110.712 163.486 C 109.708 164.853,108.642 166.247,108.343 166.584 C 108.044 166.922,107.205 167.963,106.478 168.899 C 105.750 169.834,102.688 173.772,99.672 177.649 C 96.656 181.526,93.831 185.184,93.394 185.779 C 92.958 186.374,90.845 189.113,88.700 191.865 C 86.555 194.618,84.800 197.204,84.800 197.613 C 84.800 198.328,89.721 205.031,96.391 213.400 C 98.145 215.600,99.831 217.940,100.138 218.600 C 100.445 219.260,101.813 221.057,103.178 222.593 C 104.543 224.130,107.214 227.460,109.113 229.993 C 111.013 232.527,112.886 234.960,113.276 235.400 C 116.895 239.484,121.600 246.167,121.600 247.225 C 121.600 249.082,120.734 249.201,107.274 249.188 L 95.000 249.177 93.753 248.041 C 93.067 247.417,91.717 245.847,90.753 244.553 C 89.789 243.259,87.598 240.400,85.884 238.200 C 84.170 236.000,82.144 233.390,81.383 232.400 C 80.039 230.652,77.836 227.824,69.980 217.755 C 67.901 215.091,64.490 210.694,62.400 207.984 C 60.310 205.274,57.940 202.205,57.133 201.164 C 54.148 197.312,53.949 198.059,59.992 190.400 C 62.336 187.430,64.780 184.280,65.424 183.400 C 66.068 182.520,66.710 181.710,66.850 181.600 C 66.991 181.490,68.289 179.870,69.735 178.000 C 71.181 176.130,72.644 174.240,72.987 173.800 C 73.329 173.360,73.874 172.640,74.197 172.200 C 74.521 171.760,75.924 169.960,77.316 168.200 C 78.707 166.440,80.643 163.920,81.616 162.600 C 86.304 156.242,93.783 147.128,94.735 146.611 C 96.237 145.795,119.868 145.723,120.974 146.531 M135.423 209.689 C 134.397 211.153,134.500 234.741,135.537 236.022 C 136.402 237.090,146.792 237.354,150.219 236.395 C 156.317 234.687,158.973 225.888,154.365 222.661 C 153.657 222.165,153.667 222.039,154.627 219.277 C 156.167 214.849,154.883 211.445,150.920 209.446 C 148.671 208.312,136.251 208.507,135.423 209.689 M211.038 209.667 C 210.092 211.017,210.078 234.562,211.023 235.911 C 212.753 238.381,215.200 236.344,215.200 232.433 C 215.200 230.158,215.792 228.000,216.416 228.000 C 216.762 228.000,219.600 231.411,219.600 231.826 C 219.600 232.436,222.411 236.319,223.023 236.554 C 226.862 238.026,228.203 235.600,225.655 231.795 C 220.394 223.940,220.489 224.429,223.605 221.195 C 227.568 217.081,227.059 214.281,222.687 216.150 C 221.314 216.738,216.409 221.414,216.387 222.156 C 216.380 222.400,216.110 222.251,215.787 221.824 C 215.344 221.238,215.199 219.814,215.194 216.024 C 215.187 210.201,214.826 209.063,212.929 208.878 C 211.993 208.786,211.516 208.985,211.038 209.667 M150.833 210.484 C 154.216 211.945,155.799 219.071,152.981 220.152 C 152.163 220.466,152.258 222.252,153.125 222.877 C 156.893 225.594,156.613 231.266,152.571 234.107 C 149.849 236.020,137.041 236.865,135.991 235.200 C 135.059 233.724,135.524 210.900,136.500 210.192 C 137.720 209.306,148.621 209.528,150.833 210.484 M213.876 210.100 C 214.054 210.375,214.290 213.480,214.400 217.000 C 214.641 224.727,214.589 224.696,219.451 219.964 C 221.798 217.681,222.988 216.800,223.728 216.800 C 225.902 216.800,225.392 218.386,222.331 221.138 C 219.396 223.777,219.418 224.007,223.152 229.626 C 225.811 233.627,226.310 234.620,225.977 235.243 C 225.178 236.737,222.825 235.984,221.743 233.888 C 217.580 225.823,214.400 225.067,214.400 232.142 C 214.400 235.318,213.754 236.381,212.244 235.693 L 211.200 235.217 211.200 222.828 C 211.200 211.452,211.257 210.406,211.900 210.032 C 212.849 209.479,213.489 209.501,213.876 210.100 M251.200 211.200 C 250.669 211.731,250.400 212.533,250.400 213.584 C 250.400 214.456,250.175 215.356,249.900 215.584 C 249.625 215.813,248.956 216.339,248.414 216.753 C 247.211 217.673,247.721 219.362,249.395 219.998 L 250.400 220.380 250.400 226.764 C 250.400 235.207,251.044 236.749,254.718 237.102 C 256.682 237.290,256.781 237.250,257.575 235.949 C 258.621 234.233,258.648 234.381,256.982 232.716 L 255.564 231.298 255.431 226.949 C 255.266 221.585,255.444 220.502,256.548 220.158 C 258.373 219.589,258.505 217.643,256.832 215.971 C 256.190 215.328,255.542 214.217,255.393 213.501 C 254.772 210.523,252.903 209.497,251.200 211.200 M254.400 213.829 C 254.400 215.474,254.748 216.400,255.366 216.400 C 257.343 216.400,257.498 218.780,255.583 219.733 C 254.616 220.214,254.598 220.316,254.489 225.947 L 254.378 231.672 255.880 233.047 C 258.022 235.010,256.807 236.591,253.747 235.822 C 251.684 235.305,251.203 233.612,251.201 226.858 C 251.200 220.891,251.171 220.682,250.200 219.527 C 249.080 218.196,248.939 217.394,249.742 216.920 C 250.558 216.438,251.200 214.998,251.200 213.649 C 251.200 211.962,252.638 210.929,253.677 211.870 C 254.093 212.246,254.400 213.079,254.400 213.829 M141.707 212.695 C 139.478 212.893,138.800 213.871,138.800 216.889 C 138.800 220.692,140.994 221.615,147.188 220.420 C 152.416 219.411,151.788 212.800,146.463 212.800 C 145.365 212.800,144.226 212.743,143.933 212.673 C 143.640 212.603,142.638 212.613,141.707 212.695 M149.207 214.607 C 151.883 217.028,149.432 219.400,144.256 219.400 L 140.200 219.400 140.079 217.066 C 139.903 213.664,140.184 213.459,144.698 213.695 C 147.515 213.842,148.607 214.063,149.207 214.607 M165.878 216.024 C 164.465 216.597,163.756 216.697,163.204 216.402 C 159.725 214.540,159.022 216.124,158.879 226.160 C 158.742 235.697,159.025 236.800,161.606 236.800 C 163.588 236.800,163.999 235.670,164.006 230.211 C 164.014 224.249,164.586 222.004,166.238 221.455 C 169.744 220.290,170.880 218.403,169.418 216.172 C 168.662 215.018,168.385 215.006,165.878 216.024 M175.754 216.201 C 172.591 217.648,171.272 220.038,172.243 222.567 C 172.731 223.839,174.938 223.344,176.552 221.600 C 177.465 220.613,178.390 220.000,178.966 220.000 C 184.252 220.000,184.015 222.759,178.636 223.856 C 172.790 225.048,170.600 227.027,170.600 231.117 C 170.600 236.310,176.462 239.023,181.859 236.328 L 183.605 235.456 185.157 236.328 C 188.820 238.386,191.535 236.084,189.246 232.862 C 188.611 231.968,188.468 230.884,188.342 226.000 C 188.094 216.390,183.374 212.716,175.754 216.201 M197.206 215.972 C 187.417 219.940,189.160 236.619,199.419 237.137 C 205.099 237.424,210.864 231.824,207.920 228.880 C 206.607 227.567,205.179 228.272,202.207 231.700 C 201.581 232.422,199.634 232.592,198.242 232.046 C 196.558 231.386,195.568 226.933,196.450 223.989 C 197.746 219.664,201.136 218.829,203.580 222.232 C 206.472 226.260,210.262 222.891,207.487 218.759 C 205.407 215.661,200.952 214.454,197.206 215.972 M235.597 215.574 C 231.823 216.722,229.332 219.601,228.208 224.116 L 227.446 227.175 228.395 230.070 C 231.048 238.162,239.855 240.063,245.082 233.671 C 246.637 231.770,246.731 231.522,246.333 230.379 C 245.392 227.679,243.169 228.006,241.245 231.127 C 240.104 232.977,235.086 232.805,234.358 230.891 C 233.534 228.723,233.917 228.546,240.060 228.267 C 247.152 227.944,247.733 227.492,246.804 223.017 C 245.748 217.932,240.125 214.197,235.597 215.574 M263.768 215.943 C 260.426 217.725,259.841 218.531,259.668 221.595 L 259.508 224.436 261.075 225.918 C 262.524 227.287,264.305 228.021,269.656 229.451 C 270.488 229.673,270.852 231.459,270.180 232.017 C 268.466 233.439,264.887 232.597,263.252 230.385 C 260.950 227.271,257.722 229.785,259.494 233.312 C 263.062 240.417,275.800 238.310,275.800 230.616 C 275.800 226.809,274.541 225.666,268.000 223.538 C 265.383 222.686,264.985 222.430,264.878 221.533 C 264.622 219.360,268.248 219.404,270.400 221.600 C 272.482 223.724,274.401 223.643,274.962 221.407 C 275.946 217.490,268.074 213.648,263.768 215.943 M271.748 217.514 C 273.647 218.623,274.548 220.411,273.768 221.524 C 273.061 222.533,272.031 222.224,270.600 220.575 C 268.608 218.277,263.600 218.964,263.600 221.534 C 263.600 223.017,264.534 223.649,268.427 224.806 C 274.767 226.689,276.376 228.918,274.376 233.050 C 272.353 237.228,263.235 237.811,260.727 233.923 C 258.500 230.471,261.072 228.628,263.498 231.937 C 265.128 234.161,268.778 234.443,270.865 232.506 C 272.773 230.735,271.111 228.465,267.400 227.776 C 263.116 226.981,260.560 225.141,260.176 222.576 C 259.430 217.603,266.560 214.483,271.748 217.514 M169.044 217.270 C 169.654 218.258,168.761 219.580,167.198 220.001 C 163.854 220.901,163.202 222.420,163.194 229.326 C 163.187 235.188,163.029 235.723,161.357 235.532 L 160.200 235.400 160.092 226.651 C 159.969 216.688,160.018 216.494,162.398 217.446 C 163.813 218.012,164.035 218.001,165.414 217.294 C 166.876 216.543,168.587 216.533,169.044 217.270 M183.972 217.101 C 186.659 218.471,186.964 219.331,187.194 226.189 C 187.387 231.941,187.460 232.401,188.338 233.334 C 190.338 235.462,188.194 237.038,185.560 235.375 C 183.694 234.197,183.867 234.195,181.400 235.409 C 177.638 237.259,173.898 236.472,172.020 233.433 C 169.505 229.363,173.066 225.474,180.113 224.594 C 181.964 224.362,182.556 224.101,183.149 223.253 C 185.654 219.672,179.111 217.643,175.931 221.015 C 174.423 222.613,173.323 222.785,172.828 221.500 C 171.489 218.022,179.543 214.843,183.972 217.101 M204.292 217.186 C 207.297 218.550,208.736 222.445,206.338 222.723 C 205.520 222.818,205.033 222.528,204.223 221.465 C 199.984 215.909,193.909 221.416,195.573 229.306 C 196.662 234.473,202.029 235.052,204.654 230.286 C 205.378 228.972,207.380 229.196,207.518 230.607 C 208.085 236.380,197.201 238.209,193.494 232.964 C 187.719 224.791,195.618 213.248,204.292 217.186 M242.276 217.845 C 244.648 219.311,246.744 223.603,246.132 225.739 C 245.678 227.322,244.764 227.541,238.580 227.547 C 232.955 227.552,232.800 227.598,232.800 229.238 C 232.800 233.522,238.069 235.064,241.559 231.800 C 243.578 229.911,244.552 229.577,244.957 230.633 C 245.935 233.180,241.754 236.493,237.604 236.461 C 233.311 236.428,230.094 233.708,229.188 229.344 C 227.278 220.142,235.007 213.351,242.276 217.845 M236.242 219.611 C 233.407 220.470,231.573 224.078,233.700 224.610 C 235.670 225.103,241.697 224.629,242.126 223.947 C 243.554 221.676,239.439 218.643,236.242 219.611 M240.523 221.228 C 240.951 221.628,241.210 222.318,241.133 222.860 C 240.950 224.155,234.316 224.346,234.069 223.064 C 233.602 220.636,238.417 219.266,240.523 221.228 M139.423 224.489 C 138.446 225.884,138.555 231.255,139.580 232.182 C 140.882 233.360,149.162 232.951,150.558 231.639 C 153.103 229.249,152.566 225.782,149.430 224.358 C 146.850 223.186,140.275 223.272,139.423 224.489 M149.818 225.714 C 150.615 226.400,150.880 227.000,150.880 228.123 C 150.880 231.371,149.253 232.177,143.200 231.925 L 140.200 231.800 140.081 228.837 C 139.912 224.621,139.713 224.800,144.565 224.800 C 148.353 224.800,148.858 224.888,149.818 225.714 M179.442 227.418 C 175.022 228.380,173.615 230.532,176.061 232.590 C 178.931 235.005,184.000 232.380,184.000 228.477 C 184.000 227.897,182.293 226.588,181.881 226.852 C 181.837 226.881,180.739 227.135,179.442 227.418 M182.795 228.900 C 182.783 230.741,182.315 231.566,181.058 231.960 C 176.488 233.393,173.740 230.699,177.900 228.864 C 180.575 227.684,182.802 227.701,182.795 228.900 M158.100 421.065 C 157.388 421.352,157.480 422.669,158.233 422.957 C 160.601 423.866,163.910 422.738,162.800 421.400 C 162.317 420.819,159.252 420.600,158.100 421.065 M167.267 421.225 C 164.920 422.165,168.149 423.642,170.809 422.844 C 172.748 422.264,172.807 421.908,171.072 421.280 C 169.523 420.720,168.560 420.706,167.267 421.225 M174.100 421.081 C 173.274 421.388,173.501 422.800,174.376 422.800 C 174.803 422.800,175.275 422.603,175.424 422.362 C 175.767 421.805,174.764 420.835,174.100 421.081 M178.900 421.087 C 178.308 421.300,178.231 422.648,178.792 422.995 C 179.263 423.286,180.800 422.525,180.800 422.000 C 180.800 421.488,179.510 420.868,178.900 421.087 M182.978 421.367 C 182.089 422.017,182.551 422.800,183.824 422.800 C 184.515 422.800,184.800 422.579,184.800 422.043 C 184.800 421.061,183.868 420.716,182.978 421.367 M189.100 421.265 C 187.732 421.765,187.711 422.140,189.019 422.736 C 191.253 423.754,194.238 422.648,192.624 421.400 C 191.744 420.720,190.701 420.680,189.100 421.265 M196.900 421.192 C 194.944 422.023,196.730 423.422,199.306 423.076 C 201.164 422.827,201.979 422.219,201.328 421.568 C 200.726 420.966,197.982 420.733,196.900 421.192 M209.700 421.081 C 209.083 421.310,209.041 422.654,209.638 423.024 C 210.440 423.519,211.475 422.098,210.786 421.448 C 210.464 421.144,209.975 420.979,209.700 421.081 M152.000 421.596 C 151.467 421.955,151.467 422.045,152.000 422.404 C 152.889 423.003,155.000 422.719,155.000 422.000 C 155.000 421.281,152.889 420.997,152.000 421.596 M162.316 421.783 C 162.982 422.448,159.702 423.038,158.800 422.415 C 158.267 422.046,158.267 421.954,158.800 421.585 C 159.374 421.189,161.862 421.329,162.316 421.783 M204.162 421.661 C 203.674 422.451,205.247 423.325,205.929 422.642 C 206.240 422.331,206.373 421.879,206.224 421.638 C 205.867 421.061,204.524 421.076,204.162 421.661 M214.200 421.600 C 213.598 422.574,214.871 423.135,216.000 422.394 C 216.533 422.044,216.533 421.956,216.000 421.606 C 215.226 421.098,214.512 421.095,214.200 421.600 M310.800 421.606 C 310.111 422.058,310.852 422.788,312.000 422.788 C 313.148 422.788,313.889 422.058,313.200 421.606 C 312.870 421.389,312.330 421.212,312.000 421.212 C 311.670 421.212,311.130 421.389,310.800 421.606 M170.400 422.000 C 170.400 422.220,169.950 422.400,169.400 422.400 C 168.850 422.400,168.400 422.220,168.400 422.000 C 168.400 421.780,168.850 421.600,169.400 421.600 C 169.950 421.600,170.400 421.780,170.400 422.000 M192.000 422.000 C 192.000 422.220,191.550 422.400,191.000 422.400 C 190.450 422.400,190.000 422.220,190.000 422.000 C 190.000 421.780,190.450 421.600,191.000 421.600 C 191.550 421.600,192.000 421.780,192.000 422.000 M199.600 422.000 C 199.600 422.220,199.150 422.400,198.600 422.400 C 198.050 422.400,197.600 422.220,197.600 422.000 C 197.600 421.780,198.050 421.600,198.600 421.600 C 199.150 421.600,199.600 421.780,199.600 422.000 " stroke="none" fill="#c9accf" fill-rule="evenodd"></path><path id="path4" d="M101.148 95.081 C 100.454 95.371,100.000 95.863,100.000 96.323 C 100.000 97.017,102.566 100.800,103.037 100.800 C 103.147 100.800,102.598 99.964,101.818 98.942 C 100.284 96.933,100.035 95.825,101.033 95.443 C 101.846 95.131,126.535 95.123,127.347 95.435 C 127.905 95.649,131.701 100.221,134.625 104.200 C 135.271 105.079,136.134 106.159,136.542 106.600 C 136.950 107.040,137.571 107.850,137.923 108.400 C 138.274 108.950,138.799 109.670,139.090 110.000 C 139.381 110.330,141.138 112.580,142.995 115.000 C 144.852 117.420,146.616 119.670,146.916 120.000 C 147.215 120.330,148.874 122.487,150.602 124.794 C 152.329 127.100,155.147 130.790,156.863 132.994 C 158.579 135.197,160.572 137.777,161.292 138.727 C 162.011 139.676,163.005 140.899,163.500 141.445 C 163.995 141.990,164.400 142.537,164.400 142.660 C 164.400 142.784,164.850 143.419,165.400 144.073 C 166.937 145.899,166.727 146.732,163.900 150.014 C 163.610 150.352,162.838 151.336,162.186 152.201 C 161.534 153.066,160.767 154.050,160.482 154.387 C 159.379 155.693,154.552 161.941,150.320 167.541 C 147.885 170.763,145.644 173.670,145.339 174.000 C 145.034 174.330,143.934 175.688,142.893 177.017 C 141.852 178.347,140.770 179.697,140.489 180.017 C 139.808 180.794,134.013 188.356,133.000 189.790 C 132.560 190.412,131.930 191.218,131.600 191.579 C 131.270 191.941,130.131 193.263,129.069 194.518 L 127.138 196.800 114.995 196.800 C 108.124 196.800,102.409 196.632,101.832 196.412 L 100.812 196.025 101.696 194.512 C 102.654 192.873,103.029 192.352,104.100 191.171 C 104.485 190.747,104.800 190.308,104.800 190.196 C 104.800 190.084,106.195 188.207,107.900 186.024 C 109.605 183.842,112.440 180.141,114.200 177.799 C 115.960 175.458,117.715 173.245,118.100 172.882 C 118.485 172.519,118.800 172.082,118.800 171.911 C 118.800 171.740,119.115 171.253,119.500 170.828 C 120.329 169.914,120.973 169.090,124.995 163.800 C 126.667 161.600,128.394 159.350,128.832 158.800 C 129.270 158.250,130.965 156.000,132.598 153.800 C 134.231 151.600,136.115 149.106,136.784 148.257 C 138.402 146.204,138.339 145.767,136.002 142.766 C 134.903 141.354,133.733 139.840,133.402 139.400 C 131.224 136.505,129.287 134.066,128.600 133.353 C 128.160 132.896,127.493 132.089,127.117 131.561 C 126.286 130.392,126.233 130.322,121.022 123.600 C 118.720 120.630,116.243 117.413,115.518 116.452 C 113.739 114.092,112.400 112.613,112.400 113.008 C 112.400 113.187,112.669 113.618,112.997 113.966 C 113.325 114.315,115.111 116.580,116.965 119.000 C 118.819 121.420,121.256 124.570,122.381 126.000 C 123.505 127.430,126.691 131.480,129.460 135.000 C 132.228 138.520,134.915 142.060,135.431 142.866 C 135.946 143.673,136.555 144.449,136.784 144.590 C 137.865 145.258,137.094 147.108,134.196 150.800 C 132.555 152.890,129.641 156.670,127.720 159.200 C 125.799 161.730,124.072 163.909,123.883 164.043 C 123.693 164.176,123.237 164.747,122.869 165.311 C 122.251 166.259,114.347 176.488,105.200 188.177 C 97.527 197.982,97.548 198.004,114.760 197.993 C 128.042 197.986,127.165 198.297,132.232 191.800 C 134.120 189.380,136.016 186.950,136.446 186.400 C 136.876 185.850,138.110 184.230,139.188 182.800 C 140.267 181.370,142.286 178.745,143.675 176.967 C 145.064 175.189,146.560 173.241,147.000 172.638 C 147.978 171.297,154.612 162.812,160.124 155.853 C 162.366 153.023,164.380 150.413,164.600 150.055 C 164.820 149.696,165.495 148.811,166.100 148.087 C 167.533 146.374,167.485 145.765,165.748 143.600 C 164.953 142.610,163.568 140.810,162.669 139.600 C 161.770 138.390,160.901 137.220,160.738 137.000 C 160.574 136.780,159.839 135.880,159.104 135.000 C 158.369 134.120,157.505 133.009,157.184 132.530 C 156.863 132.052,154.437 128.902,151.794 125.530 C 149.150 122.159,146.238 118.410,145.323 117.200 C 144.407 115.990,142.096 113.020,140.187 110.600 C 138.278 108.180,135.978 105.210,135.076 104.000 C 132.855 101.022,132.959 101.154,131.760 99.800 C 131.176 99.140,130.256 97.939,129.716 97.130 C 127.950 94.488,127.055 94.338,113.883 94.477 C 106.025 94.561,101.926 94.755,101.148 95.081 M106.000 104.800 C 106.697 105.680,107.357 106.400,107.467 106.400 C 107.577 106.400,107.097 105.680,106.400 104.800 C 105.703 103.920,105.043 103.200,104.933 103.200 C 104.823 103.200,105.303 103.920,106.000 104.800 M108.970 108.600 C 111.147 111.672,111.928 112.606,112.140 112.393 C 112.325 112.209,111.166 110.696,108.676 107.874 C 107.870 106.960,107.953 107.165,108.970 108.600 M94.735 146.611 C 93.783 147.128,86.304 156.242,81.616 162.600 C 80.643 163.920,78.707 166.440,77.316 168.200 C 75.924 169.960,74.521 171.760,74.197 172.200 C 73.874 172.640,73.329 173.360,72.987 173.800 C 72.644 174.240,71.181 176.130,69.735 178.000 C 68.289 179.870,66.991 181.490,66.850 181.600 C 66.710 181.710,66.068 182.520,65.424 183.400 C 64.780 184.280,62.336 187.430,59.992 190.400 C 53.949 198.059,54.148 197.312,57.133 201.164 C 57.940 202.205,60.310 205.274,62.400 207.984 C 64.490 210.694,67.901 215.091,69.980 217.755 C 77.836 227.824,80.039 230.652,81.383 232.400 C 82.144 233.390,84.170 236.000,85.884 238.200 C 87.598 240.400,89.789 243.259,90.753 244.553 C 91.717 245.847,93.067 247.417,93.753 248.041 L 95.000 249.177 107.600 249.099 L 120.200 249.022 107.600 248.811 C 100.670 248.695,94.766 248.449,94.480 248.264 C 94.194 248.079,92.893 246.549,91.589 244.864 C 90.285 243.179,88.974 241.530,88.676 241.200 C 88.377 240.870,87.079 239.160,85.790 237.400 C 84.501 235.640,82.086 232.481,80.423 230.379 C 78.760 228.278,76.950 225.951,76.400 225.207 C 74.335 222.418,72.242 219.792,71.896 219.557 C 71.700 219.424,71.237 218.851,70.869 218.283 C 69.992 216.932,62.256 206.721,61.545 205.976 C 59.983 204.341,55.600 198.153,55.600 197.584 C 55.600 197.222,55.971 196.493,56.425 195.963 C 56.878 195.434,58.003 193.990,58.925 192.756 C 59.846 191.522,61.860 188.899,63.400 186.928 C 64.940 184.956,66.650 182.747,67.200 182.018 C 67.750 181.289,68.622 180.222,69.137 179.647 C 69.652 179.071,70.372 178.147,70.737 177.594 C 71.806 175.972,76.159 170.236,76.652 169.800 C 76.900 169.580,78.555 167.510,80.330 165.200 C 82.104 162.890,83.815 160.705,84.133 160.344 C 84.975 159.390,87.671 155.933,88.600 154.617 C 89.040 153.994,90.165 152.605,91.100 151.529 C 92.035 150.453,92.800 149.421,92.800 149.234 C 92.800 149.048,93.447 148.401,94.238 147.798 L 95.677 146.701 107.738 146.768 C 120.781 146.840,122.429 147.114,120.630 148.913 C 120.284 149.259,120.000 149.717,120.000 149.929 C 120.000 150.142,119.553 150.740,119.007 151.258 C 118.461 151.776,118.011 152.335,118.007 152.500 C 118.003 152.665,117.685 153.147,117.300 153.571 C 116.915 153.996,116.420 154.583,116.200 154.876 C 112.690 159.556,108.112 165.518,107.714 165.929 C 107.431 166.219,107.200 166.584,107.200 166.739 C 107.200 166.895,106.705 167.565,106.100 168.229 C 105.495 168.893,104.730 169.819,104.400 170.287 C 103.204 171.984,96.653 180.615,96.118 181.200 C 95.816 181.530,94.768 182.880,93.790 184.200 C 92.812 185.520,91.769 186.870,91.471 187.200 C 90.521 188.253,87.600 192.356,87.600 192.637 C 87.600 192.786,87.195 193.317,86.700 193.816 C 83.142 197.407,83.511 198.485,91.487 207.800 C 92.052 208.460,93.254 209.990,94.157 211.200 C 95.061 212.410,95.997 213.580,96.239 213.800 C 96.480 214.020,97.059 214.842,97.526 215.626 C 98.381 217.064,100.000 218.771,100.000 218.235 C 100.000 218.076,99.465 217.283,98.810 216.473 C 90.416 206.078,84.800 198.514,84.800 197.603 C 84.800 197.200,86.555 194.618,88.700 191.865 C 90.845 189.113,92.958 186.374,93.394 185.779 C 93.831 185.184,96.656 181.526,99.672 177.649 C 102.688 173.772,105.750 169.834,106.478 168.899 C 107.205 167.963,108.044 166.922,108.343 166.584 C 108.642 166.247,109.708 164.853,110.712 163.486 C 112.293 161.334,114.700 158.242,118.625 153.324 C 121.753 149.404,122.389 147.566,120.974 146.531 C 119.868 145.723,96.237 145.795,94.735 146.611 M136.500 210.192 C 135.524 210.900,135.059 233.724,135.991 235.200 C 137.041 236.865,149.849 236.020,152.571 234.107 C 156.613 231.266,156.893 225.594,153.125 222.877 C 152.258 222.252,152.163 220.466,152.981 220.152 C 155.799 219.071,154.216 211.945,150.833 210.484 C 148.621 209.528,137.720 209.306,136.500 210.192 M211.900 210.032 C 211.257 210.406,211.200 211.452,211.200 222.828 L 211.200 235.217 212.244 235.693 C 213.754 236.381,214.400 235.318,214.400 232.142 C 214.400 225.067,217.580 225.823,221.743 233.888 C 222.825 235.984,225.178 236.737,225.977 235.243 C 226.310 234.620,225.811 233.627,223.152 229.626 C 219.418 224.007,219.396 223.777,222.331 221.138 C 225.392 218.386,225.902 216.800,223.728 216.800 C 222.988 216.800,221.798 217.681,219.451 219.964 C 214.589 224.696,214.641 224.727,214.400 217.000 C 214.166 209.506,213.930 208.849,211.900 210.032 M214.006 217.376 C 214.015 225.758,214.173 225.852,219.513 220.647 C 222.731 217.510,224.000 216.756,224.000 217.978 C 224.000 218.392,222.986 219.736,221.748 220.965 C 219.228 223.465,219.020 224.823,220.806 227.108 C 223.400 230.425,225.944 234.847,225.382 235.062 C 224.207 235.513,222.807 234.782,221.995 233.294 C 217.450 224.959,214.000 224.306,214.000 231.782 C 214.000 234.982,213.513 235.910,212.299 235.023 C 211.241 234.249,211.229 211.873,212.286 210.705 C 213.616 209.236,213.999 210.724,214.006 217.376 M150.785 210.992 C 153.931 212.619,155.176 218.756,152.563 219.759 C 151.809 220.048,151.811 222.753,152.566 223.042 C 156.333 224.488,155.931 231.707,151.957 233.966 C 149.399 235.421,139.368 236.206,137.019 235.136 L 136.000 234.672 136.000 223.016 C 136.000 214.484,136.129 211.231,136.480 210.880 C 137.232 210.128,149.297 210.223,150.785 210.992 M252.077 211.831 C 251.505 212.232,251.200 212.863,251.200 213.649 C 251.200 214.998,250.558 216.438,249.742 216.920 C 248.939 217.394,249.080 218.196,250.200 219.527 C 251.171 220.682,251.200 220.891,251.201 226.858 C 251.203 233.612,251.684 235.305,253.747 235.822 C 256.807 236.591,258.022 235.010,255.880 233.047 L 254.378 231.672 254.489 225.947 C 254.598 220.316,254.616 220.214,255.583 219.733 C 257.498 218.780,257.343 216.400,255.366 216.400 C 254.748 216.400,254.400 215.474,254.400 213.829 C 254.400 211.970,253.269 210.996,252.077 211.831 M139.757 212.364 C 138.176 213.055,137.792 218.992,139.235 220.435 C 140.491 221.691,147.576 221.445,149.490 220.080 C 152.024 218.273,151.981 214.654,149.405 212.967 C 148.264 212.219,141.111 211.771,139.757 212.364 M253.757 212.633 C 253.891 212.981,254.003 213.836,254.006 214.533 C 254.014 216.086,254.334 216.609,255.500 216.973 C 256.738 217.359,256.627 218.184,255.200 219.200 L 254.000 220.054 254.000 226.073 L 254.000 232.092 255.345 233.346 C 257.389 235.251,256.569 236.175,253.717 235.181 C 252.022 234.590,251.600 232.805,251.600 226.233 C 251.600 221.332,251.508 220.599,250.725 219.238 L 249.850 217.717 250.725 216.605 C 251.206 215.993,251.600 214.923,251.600 214.226 C 251.600 212.323,253.188 211.150,253.757 212.633 M146.463 212.800 C 151.788 212.800,152.416 219.411,147.188 220.420 C 140.994 221.615,138.800 220.692,138.800 216.889 C 138.800 213.424,140.666 211.891,143.933 212.673 C 144.226 212.743,145.365 212.800,146.463 212.800 M265.405 216.490 C 257.280 218.208,258.685 226.158,267.400 227.776 C 271.111 228.465,272.773 230.735,270.865 232.506 C 268.778 234.443,265.128 234.161,263.498 231.937 C 261.072 228.628,258.500 230.471,260.727 233.923 C 263.235 237.811,272.353 237.228,274.376 233.050 C 276.376 228.918,274.767 226.689,268.427 224.806 C 264.534 223.649,263.600 223.017,263.600 221.534 C 263.600 218.964,268.608 218.277,270.600 220.575 C 272.031 222.224,273.061 222.533,273.768 221.524 C 275.560 218.966,269.876 215.544,265.405 216.490 M165.414 217.294 C 164.035 218.001,163.813 218.012,162.398 217.446 C 160.018 216.494,159.969 216.688,160.092 226.651 L 160.200 235.400 161.357 235.532 C 163.029 235.723,163.187 235.188,163.194 229.326 C 163.202 222.420,163.854 220.901,167.198 220.001 C 168.761 219.580,169.654 218.258,169.044 217.270 C 168.587 216.533,166.876 216.543,165.414 217.294 M175.642 217.300 C 173.540 218.395,172.329 220.203,172.828 221.500 C 173.323 222.785,174.423 222.613,175.931 221.015 C 179.111 217.643,185.654 219.672,183.149 223.253 C 182.556 224.101,181.964 224.362,180.113 224.594 C 173.066 225.474,169.505 229.363,172.020 233.433 C 173.898 236.472,177.638 237.259,181.400 235.409 C 183.867 234.195,183.694 234.197,185.560 235.375 C 188.194 237.038,190.338 235.462,188.338 233.334 C 187.460 232.401,187.387 231.941,187.194 226.189 C 186.964 219.331,186.659 218.471,183.972 217.101 C 181.927 216.058,177.838 216.156,175.642 217.300 M197.000 217.148 C 188.800 220.894,190.400 235.110,199.153 236.284 C 202.896 236.786,207.798 233.459,207.518 230.607 C 207.380 229.196,205.378 228.972,204.654 230.286 C 202.029 235.052,196.662 234.473,195.573 229.306 C 193.909 221.416,199.984 215.909,204.223 221.465 C 206.357 224.263,208.667 222.302,206.800 219.277 C 205.184 216.657,200.366 215.611,197.000 217.148 M234.655 216.964 C 227.425 219.643,226.860 232.571,233.837 235.658 C 238.834 237.868,246.419 234.441,244.957 230.633 C 244.552 229.577,243.578 229.911,241.559 231.800 C 238.069 235.064,232.800 233.522,232.800 229.238 C 232.800 227.598,232.955 227.552,238.580 227.547 C 246.666 227.539,247.450 226.870,245.333 221.780 C 243.497 217.364,239.023 215.346,234.655 216.964 M184.303 217.897 C 186.253 218.903,186.752 220.706,186.733 226.671 C 186.720 230.972,187.256 234.000,188.031 234.000 C 188.677 234.000,188.428 234.757,187.643 235.177 C 187.055 235.492,186.559 235.361,185.425 234.591 C 184.622 234.046,183.612 233.600,183.182 233.600 C 182.263 233.600,182.200 233.298,182.938 232.431 C 185.981 228.859,182.974 223.369,179.743 226.600 C 179.413 226.930,178.602 227.200,177.941 227.200 C 174.886 227.200,173.346 231.042,175.631 232.964 C 177.010 234.125,177.059 234.138,179.700 234.015 C 181.658 233.924,182.383 234.620,180.700 234.974 C 175.816 236.003,174.633 235.875,173.149 234.155 C 170.310 230.863,172.698 226.000,177.153 226.000 C 177.648 226.000,178.409 225.809,178.845 225.576 C 179.281 225.343,180.376 225.026,181.279 224.872 C 184.689 224.290,185.320 221.256,182.436 219.312 C 180.019 217.684,177.382 218.283,175.162 220.963 C 174.459 221.812,173.200 221.607,173.200 220.643 C 173.200 217.583,180.294 215.828,184.303 217.897 M204.799 218.058 C 206.123 219.033,207.200 220.702,207.200 221.780 C 207.200 222.906,205.459 222.461,204.600 221.116 C 200.432 214.589,193.369 220.973,195.202 229.611 C 196.371 235.116,202.261 235.757,205.055 230.684 C 205.531 229.820,206.800 230.162,206.800 231.154 C 206.800 236.929,195.958 237.098,193.183 231.366 C 189.142 223.016,197.901 212.981,204.799 218.058 M241.943 218.171 C 244.012 219.240,245.581 222.200,245.594 225.057 C 245.602 226.645,245.163 226.810,241.067 226.760 C 238.137 226.724,237.964 226.681,239.387 226.348 C 243.595 225.362,243.947 221.304,240.002 219.248 C 237.618 218.005,236.014 218.368,233.500 220.721 C 231.186 222.886,232.731 226.405,235.955 226.314 C 236.646 226.294,237.329 226.395,237.472 226.539 C 237.616 226.683,236.881 226.800,235.840 226.800 C 233.137 226.800,232.400 227.304,232.400 229.155 C 232.400 234.148,238.017 235.887,242.028 232.135 C 243.975 230.314,245.046 230.372,244.550 232.270 C 243.248 237.249,232.759 236.606,230.356 231.400 C 226.423 222.878,234.099 214.114,241.943 218.171 M269.688 217.218 C 271.947 217.845,274.335 220.237,273.518 221.053 C 272.874 221.697,271.200 221.238,271.200 220.419 C 271.200 219.768,268.520 218.400,267.247 218.400 C 265.344 218.400,263.211 219.944,263.205 221.326 C 263.196 223.429,263.807 223.918,268.109 225.241 C 274.828 227.307,276.618 230.663,272.843 234.113 C 269.231 237.413,260.410 235.702,260.402 231.700 C 260.399 230.386,261.433 230.578,262.920 232.168 C 267.055 236.589,275.103 233.507,271.159 229.014 C 270.476 228.236,269.572 227.600,269.151 227.600 C 267.706 227.600,262.600 225.580,261.652 224.633 C 257.933 220.918,263.734 215.564,269.688 217.218 M168.400 217.567 C 168.400 218.579,167.780 219.231,166.459 219.611 C 163.519 220.456,163.018 221.724,162.872 228.683 L 162.744 234.800 161.572 234.800 L 160.400 234.800 160.400 226.624 C 160.400 217.750,160.419 217.680,162.614 218.405 C 163.820 218.803,164.191 218.756,165.306 218.066 C 166.668 217.224,168.400 216.945,168.400 217.567 M100.014 219.246 C 100.022 219.551,101.371 221.228,103.011 222.974 C 104.651 224.719,106.091 226.457,106.212 226.837 C 106.332 227.216,106.718 227.637,107.071 227.772 C 107.734 228.026,105.759 225.388,103.200 222.600 C 102.392 221.720,101.342 220.481,100.866 219.846 C 100.390 219.211,100.006 218.941,100.014 219.246 M240.639 220.208 C 243.956 222.304,242.710 224.567,238.158 224.718 C 233.489 224.872,232.800 224.686,232.800 223.267 C 232.800 220.271,237.707 218.356,240.639 220.208 M140.905 223.125 C 138.446 223.362,137.152 229.985,139.100 232.368 C 140.944 234.624,149.781 233.755,151.647 231.134 C 155.175 226.179,149.914 222.256,140.905 223.125 M149.430 224.358 C 152.566 225.782,153.103 229.249,150.558 231.639 C 149.162 232.951,140.882 233.360,139.580 232.182 C 138.555 231.255,138.446 225.884,139.423 224.489 C 140.275 223.272,146.850 223.186,149.430 224.358 M182.981 227.264 C 184.129 227.787,184.251 228.625,183.455 230.531 C 182.279 233.344,178.280 234.457,176.061 232.590 C 173.615 230.532,175.022 228.380,179.442 227.418 C 180.739 227.135,181.837 226.881,181.881 226.852 C 181.926 226.823,182.421 227.009,182.981 227.264 M109.638 231.176 C 110.781 232.743,111.888 234.131,112.097 234.260 C 112.307 234.390,111.549 233.217,110.412 231.655 C 109.276 230.092,108.169 228.704,107.953 228.571 C 107.737 228.437,108.495 229.610,109.638 231.176 M115.149 238.304 C 115.356 238.692,115.936 239.367,116.437 239.804 C 117.183 240.456,117.145 240.328,116.226 239.100 C 115.040 237.513,114.520 237.129,115.149 238.304 M119.024 243.182 C 119.991 244.589,121.599 246.438,121.588 246.131 C 121.581 245.949,120.906 245.072,120.088 244.182 C 119.270 243.293,118.791 242.843,119.024 243.182 M158.800 421.585 C 158.267 421.954,158.267 422.046,158.800 422.415 C 159.374 422.811,161.862 422.671,162.316 422.217 C 162.982 421.552,159.702 420.962,158.800 421.585 M160.800 422.000 C 160.800 422.220,160.530 422.400,160.200 422.400 C 159.870 422.400,159.600 422.220,159.600 422.000 C 159.600 421.780,159.870 421.600,160.200 421.600 C 160.530 421.600,160.800 421.780,160.800 422.000 M168.400 422.000 C 168.400 422.220,168.850 422.400,169.400 422.400 C 169.950 422.400,170.400 422.220,170.400 422.000 C 170.400 421.780,169.950 421.600,169.400 421.600 C 168.850 421.600,168.400 421.780,168.400 422.000 M190.000 422.000 C 190.000 422.220,190.450 422.400,191.000 422.400 C 191.550 422.400,192.000 422.220,192.000 422.000 C 192.000 421.780,191.550 421.600,191.000 421.600 C 190.450 421.600,190.000 421.780,190.000 422.000 M197.600 422.000 C 197.600 422.220,198.050 422.400,198.600 422.400 C 199.150 422.400,199.600 422.220,199.600 422.000 C 199.600 421.780,199.150 421.600,198.600 421.600 C 198.050 421.600,197.600 421.780,197.600 422.000 " stroke="none" fill="#ce94a4" fill-rule="evenodd"></path></g></svg>